#N canvas 1127 431 698 568 12;
#X obj 119 63 notein;
#X floatatom 96 119 5 0 0 0 - - -;
#X floatatom 150 110 5 0 0 0 - - -;
#X obj 115 198 mtof;
#X obj 124 241 osc~;
#X obj 48 526 dac~;
#X obj 192 244 phasor~;
#X obj 163 316 *~ 0.5;
#X obj 190 386 tabwrite~ waveform;
#N canvas 0 50 450 250 (subpatch) 0;
#X array waveform 100 float 5;
#A 0 0 0 0 0 0 0 0 0 0 0 0 0 0 0 0 0 0 0 0 0 0 0 0 0 0 0 0 0 0 0 0
0 0 0 0 0 0 0 0 0 0 0 0 0 0 0 0 0 0 0 0 0 0 0 0 0 0 0 0 0 0 0 0 0 0
0 0 0 0 0 0 0 0 0 0 0 0 0 0 0 0 0 0 0 0 0 0 0 0 0 0 0 0 0 0 0 0 0 0
0;
#X coords 0 1 99 -1 200 140 1 0 0;
#X restore 328 367 graph;
#X obj 337 234 tgl 15 0 empty empty empty 17 7 0 10 -262144 -1 -1 1
1;
#X obj 341 253 metro 10;
#X obj 57 433 lop~;
#X obj 131 417 hsl 128 15 0 127 0 0 empty empty empty -2 -8 0 10 -262144
-1 -1 1600 1;
#X obj 126 459 mtof;
#X connect 0 0 1 0;
#X connect 0 1 2 0;
#X connect 1 0 3 0;
#X connect 2 0 7 1;
#X connect 3 0 4 0;
#X connect 3 0 6 0;
#X connect 4 0 7 0;
#X connect 6 0 7 0;
#X connect 7 0 12 0;
#X connect 10 0 11 0;
#X connect 11 0 8 0;
#X connect 12 0 5 0;
#X connect 13 0 14 0;
#X connect 14 0 12 1;
